<svg id="Layer_1" data-name="Layer 1" xmlns="http://www.w3.org/2000/svg" width="150" height="150" viewBox="0 0 150 150"><defs><style>.cls-1,.cls-8{fill:none;stroke-miterlimit:10;stroke-width:0.75px;}.cls-1{stroke:#e8e591;}.cls-2{fill:#cbcbcb;}.cls-3{fill:#a3035b;}.cls-4{fill:#8cbcef;}.cls-5{fill:#e8e591;}.cls-6{fill:#fffe9a;}.cls-7{fill:#7cacd8;}.cls-8{stroke:#fffe9a;}</style></defs><path class="cls-1" d="M77.7,58.94c-.28.78-2-.71-2.93-2.43s-1-3.42-.27-3.8.72.39,1.6,2.11S78.1,57.82,77.7,58.94Z"/><polygon class="cls-2" points="93.7 82.96 56.96 82.96 55.81 80.67 94.85 80.67 93.7 82.96"/><polygon class="cls-3" points="65.57 81.24 56.38 81.24 55.23 73.2 66.72 73.2 65.57 81.24"/><path class="cls-4" d="M97.69,75.53c-2.19,7-7.47,7.12-18.67,4.34C64.92,76.36,54.68,78,54,69.14s20-18.42,23.59-7.59C80.6,70.53,99.53,69.63,97.69,75.53Z"/><path class="cls-4" d="M71,46.15,56.67,50.23a1.16,1.16,0,0,0-.83,1L54.09,68.61l23.54-6.32L72.35,46.88A1.14,1.14,0,0,0,71,46.15Z"/><path class="cls-3" d="M55.12,74.28C61,78,68.07,78.55,74.78,79.4c3.36.42,6.64,1.22,10,1.67,3.07.42,6.49.67,9.43-.5.89-.35.5-1.8-.4-1.44-3,1.17-6.41.84-9.49.37s-6-1.16-9.11-1.55c-6.58-.85-13.58-1.28-19.31-5-.82-.53-1.57.77-.76,1.29Z"/><circle class="cls-5" cx="61.55" cy="86.41" r="4.59"/><circle class="cls-6" cx="62.13" cy="86.98" r="4.02"/><circle class="cls-2" cx="62.13" cy="86.98" r="1.72"/><circle class="cls-5" cx="86.82" cy="86.41" r="4.59"/><circle class="cls-6" cx="87.39" cy="86.98" r="4.02"/><circle class="cls-2" cx="87.39" cy="86.98" r="1.72"/><path class="cls-5" d="M99.32,85.74l-3.18,2.55a1.44,1.44,0,0,1-2.24-.63l-1.46-4a1.41,1.41,0,0,1,.44-1.61L94,81.2a1.43,1.43,0,0,1,1.67-.08l3.56,2.31A1.42,1.42,0,0,1,99.32,85.74Z"/><path class="cls-6" d="M98.63,85.91l-3.07,2.45a1.37,1.37,0,0,1-2.15-.59L92,83.92a1.37,1.37,0,0,1,.43-1.55l1-.83a1.38,1.38,0,0,1,1.61-.08l3.44,2.22A1.38,1.38,0,0,1,98.63,85.91Z"/><path class="cls-7" d="M92,72.05c-3.55,2.66-14.72,2.12-19.47-4.23s-5.27-20-1.77-22.76c4.65-3.65,3.37,13.58,9.18,19.53C85.07,69.85,95.54,69.39,92,72.05Z"/><circle class="cls-5" cx="71.31" cy="52.53" r="0.86"/><circle class="cls-5" cx="71.28" cy="56.63" r="0.86"/><circle class="cls-5" cx="72.51" cy="60.44" r="0.86"/><circle class="cls-5" cx="74.8" cy="63.89" r="0.86"/><circle class="cls-5" cx="78.25" cy="67.33" r="0.86"/><circle class="cls-5" cx="81.69" cy="69.63" r="0.86"/><circle class="cls-5" cx="86.29" cy="70.78" r="0.86"/><rect class="cls-6" x="71.5" y="52" width="4" height="1" rx="0.29"/><rect class="cls-6" x="71.5" y="55.94" width="5.04" height="1" rx="0.29" transform="translate(153.64 104.66) rotate(173.87)"/><rect class="cls-6" x="72.58" y="59.57" width="4.72" height="1" rx="0.29" transform="translate(161.9 100.85) rotate(166.42)"/><rect class="cls-6" x="74.54" y="62.56" width="4.23" height="1" rx="0.29" transform="translate(172.39 89.27) rotate(155.87)"/><rect class="cls-6" x="77.92" y="65.77" width="4" height="1" rx="0.29" transform="translate(182.28 83.71) rotate(150)"/><rect class="cls-6" x="81.32" y="67.84" width="3.74" height="1" rx="0.29" transform="translate(190.74 63.41) rotate(137.97)"/><rect class="cls-6" x="85.57" y="69.05" width="3.03" height="1" rx="0.29" transform="translate(193.74 37.23) rotate(124.53)"/><path class="cls-8" d="M78.6,57.61c-.28.78-2-.71-2.93-2.42s-1-3.42-.27-3.8.72.39,1.6,2.11S79,56.5,78.6,57.61Z"/><path class="cls-6" d="M75.28,52.91l-.76,7.81a1,1,0,0,0,.33.86c.33.29.74.61.65.59h-1c-.16,0-1-.86-1-1l.82-8.42a.29.29,0,0,1,.34-.24l.42.07A.3.3,0,0,1,75.28,52.91Z"/></svg>