<svg id="Layer_1" data-name="Layer 1" xmlns="http://www.w3.org/2000/svg" width="150" height="150" viewBox="0 0 150 150"><defs><style>.cls-1{fill:#fffe9a;}</style></defs><path class="cls-1" d="M33.23,53.66l1.84-3.18a4.64,4.64,0,0,0,.58-1.75,4.92,4.92,0,0,0-.13-1.8,4.75,4.75,0,0,0-.83-1.65A5.2,5.2,0,0,0,33.2,44a4.48,4.48,0,0,0-2.33-.6,4.87,4.87,0,0,0-2.36.63,4.44,4.44,0,0,0-1.72,1.69l-4,6.9,12.05,7-.31.55L21.94,52.83l4.3-7.44a5.07,5.07,0,0,1,2-1.92,5.63,5.63,0,0,1,2.68-.72,5,5,0,0,1,2.64.69A5.88,5.88,0,0,1,35.29,45a4.9,4.9,0,0,1,1,3.88,5.58,5.58,0,0,1-.68,2L33.78,54ZM32.14,53,34,49.85a3.35,3.35,0,0,0,0-3.42,3.68,3.68,0,0,0-1.39-1.35,3.54,3.54,0,0,0-4.68,1.26l-3.34,5.8,11,6.32-.32.55L23.67,52.37,27.33,46a4,4,0,0,1,1.49-1.46A4.33,4.33,0,0,1,30.87,44a3.86,3.86,0,0,1,2,.51,4.19,4.19,0,0,1,1.6,1.58,4.1,4.1,0,0,1,.58,2,4,4,0,0,1-.54,2l-1.84,3.18ZM31,52.4l1.84-3.18a2.11,2.11,0,0,0,.23-1.64,2.27,2.27,0,0,0-1.18-1.4A2.26,2.26,0,0,0,29,47l-2.72,4.7,9.87,5.7-.32.54-10.41-6,3-5.25a2.91,2.91,0,0,1,3.82-1,2.94,2.94,0,0,1,1.46,1.78,2.67,2.67,0,0,1-.29,2.12l-1.83,3.19Zm5.72,3.87-.31.55-9.32-5.38,2.4-4.16a1.45,1.45,0,0,1,.93-.7,1.5,1.5,0,0,1,1.16.14c1,.57,1.22,1.3.71,2.18l-1.84,3.18-.55-.31,1.84-3.19a.86.86,0,0,0,.12-.68,1.14,1.14,0,0,0-.6-.63.84.84,0,0,0-.69-.09.87.87,0,0,0-.54.42L28,51.21Z"/><path class="cls-1" d="M39.69,44.79a6.73,6.73,0,0,1-2.19-1.67,6.82,6.82,0,0,1-1.36-2.4,6.85,6.85,0,0,1,.36-5.23,6.87,6.87,0,0,1,4.07-3.55,6.85,6.85,0,0,1,5.23.36,6.87,6.87,0,0,1,3.55,4.07A6.85,6.85,0,0,1,49,41.6a6.73,6.73,0,0,1-1.67,2.19,6.82,6.82,0,0,1-2.4,1.36,6.85,6.85,0,0,1-5.23-.36Zm-2.95-4.27A6.29,6.29,0,0,0,40,44.22a6.19,6.19,0,0,0,4.75.33,6,6,0,0,0,2.18-1.24,6.07,6.07,0,0,0,1.53-2A6.19,6.19,0,0,0,49.06,39a6.43,6.43,0,0,0-1.54-4.59,6.17,6.17,0,0,0-2-1.53,6.28,6.28,0,0,0-2.35-.63,6.43,6.43,0,0,0-4.59,1.54,6.29,6.29,0,0,0-1.85,6.75Zm3.51,3.14a5.6,5.6,0,0,1-1.8-1.37,5.51,5.51,0,0,1-1.11-2,5.63,5.63,0,0,1-.28-2.17,5.78,5.78,0,0,1,.57-2.1A5.6,5.6,0,0,1,39,34.25a5.51,5.51,0,0,1,2-1.11,5.63,5.63,0,0,1,2.17-.28,5.78,5.78,0,0,1,2.1.57A5.6,5.6,0,0,1,47,34.8a5.51,5.51,0,0,1,1.11,2,5.6,5.6,0,0,1,.28,2.16A5.78,5.78,0,0,1,47.86,41a5.6,5.6,0,0,1-1.37,1.8,5.43,5.43,0,0,1-2,1.11,5.6,5.6,0,0,1-2.16.28A5.78,5.78,0,0,1,40.25,43.66Zm-2.31-3.53a5,5,0,0,0,1,1.74,5,5,0,0,0,1.59,1.22,5.33,5.33,0,0,0,1.88.51,5.16,5.16,0,0,0,1.93-.25,5,5,0,0,0,1.74-1,4.84,4.84,0,0,0,1.22-1.59,4.94,4.94,0,0,0,.51-1.88A5.16,5.16,0,0,0,47.55,37a5,5,0,0,0-1-1.74A4.84,4.84,0,0,0,45,34a4.94,4.94,0,0,0-1.88-.51,5.16,5.16,0,0,0-1.93.25,5,5,0,0,0-1.74,1,5,5,0,0,0-1.22,1.59,5.33,5.33,0,0,0-.51,1.88A5.16,5.16,0,0,0,37.94,40.13Zm3.38,2.61a4.23,4.23,0,0,1-1.91-1.29,4.31,4.31,0,0,1-1-2.06,4.53,4.53,0,0,1,.16-2.28,4.34,4.34,0,0,1,1.29-1.91,4.39,4.39,0,0,1,2.06-1,4.32,4.32,0,0,1,2.28.16,4.4,4.4,0,0,1,1.91,1.28,4.47,4.47,0,0,1,1,2.07,4.43,4.43,0,0,1-1.44,4.18,4.39,4.39,0,0,1-4.34.86ZM39,38.29A3.69,3.69,0,0,0,39.88,41a3.73,3.73,0,0,0,2.6,1.29,3.8,3.8,0,1,0-3.52-4Zm3.57,3.41a3.16,3.16,0,0,1-1.86-5.54,3.16,3.16,0,0,1,5.23,2.6,3.15,3.15,0,0,1-3.37,2.94Zm-2.31-3.33a2.53,2.53,0,0,0,2.35,2.7,2.53,2.53,0,1,0-2.35-2.7Z"/><path class="cls-1" d="M55.75,33.4,59.28,32a4.32,4.32,0,0,0,1.78-1.34,4.29,4.29,0,0,0,.59-4.32,3.91,3.91,0,0,0-1.33-1.69,4.39,4.39,0,0,0-2-.81,4.21,4.21,0,0,0-2.22.29l-7.37,3,4.56,11.13-.59.24L47.86,26.76l8-3.26a4.82,4.82,0,0,1,1.92-.36,5.13,5.13,0,0,1,1.86.36,4.8,4.8,0,0,1,1.57,1,4.24,4.24,0,0,1,1.07,1.55,5,5,0,0,1,.37,2.75,4.62,4.62,0,0,1-1.09,2.33L64,33.81l-.63.25L61.05,31.6,60.6,32l2.24,2.34-.63.26L60,32.3a4,4,0,0,1-.51.24l2.12,2.25L61,35l-2.11-2.25-.53.22,2.07,2.27-.61.25-2.09-2.26L56,34Zm-.48-1.17,3.53-1.44a3,3,0,0,0,1.68-1.62,3,3,0,0,0,0-2.4,2.71,2.71,0,0,0-1.62-1.52,3,3,0,0,0-2.33,0l-6.2,2.53,4.08,10-.58.24L49.51,27.45l6.78-2.78a3.61,3.61,0,0,1,2.81,0,3.27,3.27,0,0,1,2,1.87,3.52,3.52,0,0,1,0,2.86,3.6,3.6,0,0,1-2,2l-3.53,1.45Zm-.48-1.17,3.53-1.44a1.83,1.83,0,0,0,1-.93,1.72,1.72,0,0,0,0-1.44,1.52,1.52,0,0,0-.94-.84,1.83,1.83,0,0,0-1.36,0l-5,2.06,3.6,8.78-.58.24-3.84-9.37,5.61-2.3a2.44,2.44,0,0,1,1.84,0A2.09,2.09,0,0,1,59.89,27a2.34,2.34,0,0,1,0,1.92,2.44,2.44,0,0,1-1.35,1.27L55,31.65Zm2,5.73-.58.24-3.36-8.2L57.25,27a1.25,1.25,0,0,1,.89,0,.89.89,0,0,1,.58.52A1,1,0,0,1,58.08,29l-3.53,1.45-.24-.59,3.53-1.45a.49.49,0,0,0,.3-.71.31.31,0,0,0-.25-.17.62.62,0,0,0-.4,0l-3.85,1.58Z"/><path class="cls-1" d="M64.58,21.53l-.06-.63,9.44-1,.06.63Zm.13,1.26-.06-.63,9.44-1,.06.63Zm.13,1.26-.07-.63,9.45-1,.06.63Zm2.55.08.63-.06.94,9.1-.63.06ZM68.65,24l.63-.06.94,9.1-.63.06Zm1.26-.13.63-.06.94,9.1-.63.06Zm1.26-.13.63-.06.94,9.1-.63.06Z"/><path class="cls-1" d="M77,32.62l-.63-.09L78.15,20l.62.09Zm1.25.18-.62-.09L79.4,20.18l.63.09Zm1.26.18-.63-.09,1.79-12.53.63.09Zm1.25.18-.63-.09,1.8-12.53,6,.85-.09.63-5.35-.77-.09.63,5.35.77-.09.62-5.35-.76-.09.62,5.36.77-.09.63-5.36-.77-.27,1.91,4.93.71-.09.63-4.93-.71-.09.63,4.93.7-.09.63-4.93-.71-.09.63,4.94.71-.09.62-4.94-.7Z"/><path class="cls-1" d="M88.66,30.72A6.76,6.76,0,0,1,89.3,28a6.55,6.55,0,0,1,1.64-2.22,7.11,7.11,0,0,1,2.28-1.38A7,7,0,0,1,95.86,24a6.76,6.76,0,0,1,2.68.64,6.83,6.83,0,0,1,2.22,1.64,7.08,7.08,0,0,1,1.39,2.29,7,7,0,0,1,.41,2.64,6.8,6.8,0,0,1-.64,2.68,6.9,6.9,0,0,1-1.64,2.22A7.11,7.11,0,0,1,98,37.51a7,7,0,0,1-2.64.41,7,7,0,0,1-6.29-4.56A7,7,0,0,1,88.66,30.72Zm2.7-4.43a6.28,6.28,0,0,0-2.07,4.45,6.2,6.2,0,0,0,1.63,4.48,6.21,6.21,0,0,0,2,1.49,6.11,6.11,0,0,0,2.44.58,6.17,6.17,0,0,0,2.4-.37,6.34,6.34,0,0,0,2.08-1.26,6.28,6.28,0,0,0,2.07-4.46,6.15,6.15,0,0,0-1.64-4.47,6,6,0,0,0-2-1.49,6.29,6.29,0,0,0-2.44-.59,6.37,6.37,0,0,0-2.4.38A6.24,6.24,0,0,0,91.36,26.29Zm-1.44,4.48a5.63,5.63,0,0,1,.52-2.2,5.64,5.64,0,0,1,5.37-3.28,5.42,5.42,0,0,1,2.2.52A5.7,5.7,0,0,1,101,29a5.7,5.7,0,0,1-.19,4.36,5.44,5.44,0,0,1-1.34,1.81,5.78,5.78,0,0,1-1.87,1.14,5.88,5.88,0,0,1-2.15.33,5.59,5.59,0,0,1-2.2-.52,5.68,5.68,0,0,1-3.29-5.37Zm2.29-3.54a5,5,0,0,0-1.66,3.56,5,5,0,0,0,1.31,3.58,4.73,4.73,0,0,0,1.61,1.19,5,5,0,0,0,2,.47A5,5,0,0,0,99,34.72a5,5,0,0,0,1.19-1.61,5.08,5.08,0,0,0,.17-3.87,5.15,5.15,0,0,0-1-1.67,5,5,0,0,0-1.62-1.19,4.89,4.89,0,0,0-1.95-.46,5.15,5.15,0,0,0-1.92.3A4.94,4.94,0,0,0,92.21,27.23Zm-1,4.14a4.44,4.44,0,0,1,4-4.81,4.37,4.37,0,0,1,2.27.4,4.42,4.42,0,0,1,1.76,1.47,4.5,4.5,0,0,1,.79,2.15,4.44,4.44,0,0,1-.4,2.26,4.33,4.33,0,0,1-1.48,1.77,4.42,4.42,0,0,1-4.41.38A4.29,4.29,0,0,1,92,33.52,4.39,4.39,0,0,1,91.19,31.37Zm3.11-4a3.8,3.8,0,1,0,4.87,2.27,3.62,3.62,0,0,0-2-2.15A3.68,3.68,0,0,0,94.3,27.41Zm-1.66,4.65A3.16,3.16,0,0,1,94.52,28a3.16,3.16,0,0,1,4.06,1.89,3.16,3.16,0,1,1-5.94,2.17Zm2.1-3.46a2.53,2.53,0,0,0-.2,4.67A2.53,2.53,0,0,0,97.9,32,2.36,2.36,0,0,0,98,30.11a2.51,2.51,0,0,0-3.24-1.51Z"/><path class="cls-1" d="M108.13,30.9l.48.42-8.34,9.52-.48-.42Zm1,.83.48.42-8.34,9.52-.47-.41Zm1,.84.48.41-8.34,9.53-.47-.42Zm1,.83.47.42L105.21,41,108.72,44l-.41.48-3.52-3.07-.41.47L107.89,45l-.42.47L104,42.39l-.42.47,3.52,3.08-.42.47-4-3.49Z"/><path class="cls-1" d="M117.46,39.88l.39.5-10,7.74-.39-.5Zm.78,1,.38.5-10,7.74-.38-.5Zm.77,1,.39.5-10,7.74-.39-.5Zm.77,1,.39.5-10,7.74-.39-.5Z"/><path class="cls-1" d="M114.74,50.78A6.93,6.93,0,0,1,117,49.17a6.79,6.79,0,0,1,2.69-.59,6.93,6.93,0,0,1,4.89,1.88,6.86,6.86,0,0,1,2.2,4.94,7.17,7.17,0,0,1-.45,2.63,7.08,7.08,0,0,1-1.43,2.26,6.92,6.92,0,0,1-4.94,2.2,7,7,0,0,1-2.63-.46,7,7,0,0,1-2.26-1.42,6.9,6.9,0,0,1-1.6-2.25,6.62,6.62,0,0,1-.59-2.69,6.93,6.93,0,0,1,.45-2.63A7.11,7.11,0,0,1,114.74,50.78Zm5-1.57a6.06,6.06,0,0,0-2.44.54,6,6,0,0,0-2,1.46,6.18,6.18,0,0,0-1.71,4.45,6.29,6.29,0,0,0,2,4.49,6.35,6.35,0,0,0,6.9,1.17,6.31,6.31,0,0,0,2-1.46,6.18,6.18,0,0,0,1.71-4.45,6.25,6.25,0,0,0-2-4.49,6.3,6.3,0,0,0-2-1.3A6.58,6.58,0,0,0,119.69,49.21Zm-4,2.43a5.58,5.58,0,0,1,1.84-1.31,5.68,5.68,0,0,1,2.21-.49,5.86,5.86,0,0,1,2.15.37,5.78,5.78,0,0,1,1.85,1.17,5.68,5.68,0,0,1,1.8,4,5.54,5.54,0,0,1-1.54,4,5.5,5.5,0,0,1-1.84,1.32,5.58,5.58,0,0,1-2.2.48,5.71,5.71,0,0,1-2.16-.37,5.55,5.55,0,0,1-1.84-1.16,5.73,5.73,0,0,1-1.43-6.2A5.86,5.86,0,0,1,115.66,51.64Zm4.06-1.16a4.94,4.94,0,0,0-2,.43,4.85,4.85,0,0,0-1.63,1.16,5.16,5.16,0,0,0-1,1.65,5.09,5.09,0,0,0-.33,1.91,4.94,4.94,0,0,0,.43,2A5.19,5.19,0,0,0,118,60.26a5.1,5.1,0,0,0,1.92.33,4.94,4.94,0,0,0,2-.43A5.11,5.11,0,0,0,123.51,59a5.16,5.16,0,0,0,1-1.65,5.1,5.1,0,0,0,.33-1.92,4.91,4.91,0,0,0-.44-2,4.85,4.85,0,0,0-1.16-1.64,5.13,5.13,0,0,0-1.65-1A5,5,0,0,0,119.72,50.48Zm-3.49,2.45A4.22,4.22,0,0,1,118,51.49a4.35,4.35,0,0,1,2.27-.37,4.46,4.46,0,0,1,2.13.82,4.38,4.38,0,0,1,1.45,1.79,4.41,4.41,0,0,1-2.25,5.85,4.42,4.42,0,0,1-4.4-.46,4.32,4.32,0,0,1-1.45-1.79,4.25,4.25,0,0,1-.36-2.27A4.36,4.36,0,0,1,116.23,52.93Zm5-.94a3.77,3.77,0,0,0-4.9,2.18,3.64,3.64,0,0,0,.07,2.91A3.8,3.8,0,1,0,121.18,52Zm-4.31,2.41a3,3,0,0,1,1.66-1.76,3.08,3.08,0,0,1,2.42-.06,3,3,0,0,1,1.76,1.67,3.08,3.08,0,0,1,.06,2.42,3.16,3.16,0,1,1-5.9-2.27Zm3.86-1.23a2.47,2.47,0,0,0-1.94,0,2.54,2.54,0,0,0-1.28,3.34,2.52,2.52,0,0,0,3.34,1.29,2.54,2.54,0,0,0,1.28-3.35A2.44,2.44,0,0,0,120.73,53.17Z"/><path class="cls-1" d="M27.15,88.81a3.73,3.73,0,0,1,1-1.85,5.42,5.42,0,0,1,2.13-1.3,10,10,0,0,1,4.59-.53,8.22,8.22,0,0,1,4.17,1.78,9.09,9.09,0,0,1,2.81,4.18,11.46,11.46,0,0,1,.43,1.52,9.07,9.07,0,0,1,.19,1.56.58.58,0,0,1-.45.63,1.19,1.19,0,0,1-.85,0,.94.94,0,0,1-.59-.56,1.08,1.08,0,0,1-.05-.19c-.06-.56-.13-1-.21-1.43A9.5,9.5,0,0,0,40,91.38a5.81,5.81,0,0,0-5.25-4.06,8.77,8.77,0,0,0-3.52.5A3.62,3.62,0,0,0,29.42,89a1.69,1.69,0,0,0-.23,1.57A2.3,2.3,0,0,0,30.52,92a7.63,7.63,0,0,0,2.89.4,39.76,39.76,0,0,0,5-.5.84.84,0,0,1,.7.16,1.57,1.57,0,0,1,.41.67c.25.71.14,1.15-.32,1.31a1.14,1.14,0,0,1-.32.06c-1.06.09-2.23.23-3.48.44a16.67,16.67,0,0,0-2.81.63,2.36,2.36,0,0,0-1.1.66.86.86,0,0,0-.1.87,1.63,1.63,0,0,0,.65.81,7.86,7.86,0,0,0,1.49.7.54.54,0,0,1,.36.33.38.38,0,0,1-.07.38,1,1,0,0,1-.46.29,1.48,1.48,0,0,1-1,0,7.31,7.31,0,0,1-1.88-1,3.26,3.26,0,0,1-1.08-1.57,2.5,2.5,0,0,1,0-1.92,3,3,0,0,1,1.43-1.43,3.75,3.75,0,0,1-3.5-2.45A3.65,3.65,0,0,1,27.15,88.81Z"/><path class="cls-1" d="M32.81,101.45a6.1,6.1,0,0,1,1.54-1.37,13,13,0,0,1,3.57-1.79,1.18,1.18,0,0,1,.83,0,1.63,1.63,0,0,1,.71.63,1,1,0,0,1,.19.41.36.36,0,0,1-.18.28,5.94,5.94,0,0,1-1.08.46c-.41.16-.76.31-1.06.44a9.15,9.15,0,0,0-1.06.55,8.93,8.93,0,0,1,2.51-.32,4.63,4.63,0,0,1,1.75.35,2.27,2.27,0,0,1,1,.74.91.91,0,0,1-.25,1.44,12.28,12.28,0,0,1-2.05,1,11,11,0,0,0-1.68.81c-.35.24-.44.49-.26.75a1.28,1.28,0,0,0,.76.39,13.28,13.28,0,0,0,1.72.24.57.57,0,0,1,.43.22.37.37,0,0,1,0,.38,1,1,0,0,1-.37.4,1.42,1.42,0,0,1-1,.32,7.17,7.17,0,0,1-2-.41,3.1,3.1,0,0,1-1.48-1.16,1.56,1.56,0,0,1-.32-1.28,2,2,0,0,1,.88-1.13,9.9,9.9,0,0,1,1.44-.73,8.77,8.77,0,0,0,1.26-.63c.14-.1.17-.2.11-.29S38.4,102,38,102a8.85,8.85,0,0,0-1.6.18,10.86,10.86,0,0,0-1.88.55,2.62,2.62,0,0,1-1.07.25,1,1,0,0,1-.63-.45A.89.89,0,0,1,32.81,101.45Z"/><path class="cls-1" d="M47.94,114a1,1,0,0,1-.27.47,1.46,1.46,0,0,1-.9.52,7.76,7.76,0,0,1-2,0,2.74,2.74,0,0,1-1.53-.63,2,2,0,0,1-.4-2.31,4.6,4.6,0,0,1-1.64,0,2.33,2.33,0,0,1-1.06-.58,2,2,0,0,1-.69-1.62,2.78,2.78,0,0,1,.82-1.83,5.15,5.15,0,0,1,2-1.38,4.9,4.9,0,0,1,2.32-.31,4.39,4.39,0,0,1,2.13.84,19.93,19.93,0,0,1,4.44-3.12c1.41-.7,2.46-.73,3.15-.1a1.41,1.41,0,0,1,.42,1.23,3.25,3.25,0,0,1-1,1.7,12.34,12.34,0,0,1-3.48,2.49,31.38,31.38,0,0,1-5.06,2,3.6,3.6,0,0,0-.7,1.17.64.64,0,0,0,.14.67,1.36,1.36,0,0,0,.91.31,12.35,12.35,0,0,0,1.75-.13.57.57,0,0,1,.47.12A.38.38,0,0,1,47.94,114Zm-5.66-3a5,5,0,0,0,1.19-.16,10.86,10.86,0,0,1,1.19-1.54l.87-.89a2.64,2.64,0,0,0-1.87-.13,3.56,3.56,0,0,0-1.79,1.09c-.53.57-.6,1-.2,1.4A1,1,0,0,0,42.28,110.92ZM52,105.4a19.58,19.58,0,0,0-2.3,1.73c-.89.75-1.79,1.58-2.69,2.47a16.07,16.07,0,0,0,5.56-3.41,3.28,3.28,0,0,0,.56-.76c.1-.21.12-.35,0-.42S52.59,105,52,105.4Z"/><path class="cls-1" d="M47.64,116.77a6.52,6.52,0,0,1,.83-1.89,13.25,13.25,0,0,1,2.52-3.1,1.24,1.24,0,0,1,.76-.35,1.71,1.71,0,0,1,.9.29A.86.86,0,0,1,53,112a.34.34,0,0,1,0,.33,6,6,0,0,1-.79.87c-.31.31-.58.59-.79.83a11.53,11.53,0,0,0-.74.94,8.93,8.93,0,0,1,2.15-1.32,4.6,4.6,0,0,1,1.74-.41,2.44,2.44,0,0,1,1.19.27.93.93,0,0,1,.36,1.43,8.15,8.15,0,0,1-.63.79,5,5,0,0,0-.52.63c-.19.32-.17.55.06.68a1.9,1.9,0,0,0,1.35,0,.61.61,0,0,1,.47,0,.36.36,0,0,1,.19.33.85.85,0,0,1-.14.48,1.31,1.31,0,0,1-.75.64,4.29,4.29,0,0,1-1.3.14,2.56,2.56,0,0,1-1.27-.36,1.75,1.75,0,0,1-.88-1,1.55,1.55,0,0,1,.21-1.23,3.27,3.27,0,0,1,.29-.39c.12-.17.21-.29.24-.35s.08-.25,0-.31-.41,0-.81.14a7.42,7.42,0,0,0-1.39.82,11.13,11.13,0,0,0-1.48,1.28,2.56,2.56,0,0,1-.87.67,1,1,0,0,1-.76-.14A.89.89,0,0,1,47.64,116.77Z"/><path class="cls-1" d="M64,121.1a1,1,0,0,1-.07.53,1.49,1.49,0,0,1-.62.83,5.7,5.7,0,0,1-2,.68,4.59,4.59,0,0,1-2.38-.21,3.55,3.55,0,0,1-2.14-1.74,3.33,3.33,0,0,1,0-2.67,4.58,4.58,0,0,1,1.14-1.77,3.85,3.85,0,0,1,1.72-1,3.26,3.26,0,0,1,2,.11,1.91,1.91,0,0,1,1.23,2.62A2.63,2.63,0,0,1,61.34,120a5.9,5.9,0,0,1-3,.27,1.6,1.6,0,0,0,1.18,1.21,3.5,3.5,0,0,0,1.71.08,5.43,5.43,0,0,0,1.95-.7.56.56,0,0,1,.48-.07A.41.41,0,0,1,64,121.1Zm-4.43-3.54a3.27,3.27,0,0,0-1,1.43v0a3.64,3.64,0,0,0,1.63-.13,1.35,1.35,0,0,0,.87-.79.67.67,0,0,0,0-.52.59.59,0,0,0-.36-.33A1.2,1.2,0,0,0,59.53,117.56Z"/><path class="cls-1" d="M64.6,123.83a2.93,2.93,0,0,1-.26-2,5.05,5.05,0,0,1,1-2.3A5,5,0,0,1,67.15,118a3.59,3.59,0,0,1,2.18-.36.62.62,0,0,1,.44.21,1.27,1.27,0,0,1,.12.52,3.13,3.13,0,0,1,.67,0,.84.84,0,0,1,.56.28.76.76,0,0,1,.12.57,9,9,0,0,1-.36,1.24q-.33.93-.57,1.8a18.32,18.32,0,0,0-.41,2,1.24,1.24,0,0,1-.38.82,1.38,1.38,0,0,1-1.6-.26,1.15,1.15,0,0,1-.12-.88l0-.25a1.8,1.8,0,0,1-3.25.14Zm3.12-1a7.35,7.35,0,0,0,1-2.09l.56-1.55a1.85,1.85,0,0,0-1.28.31,3.38,3.38,0,0,0-1.09,1.13,4.17,4.17,0,0,0-.6,1.62,1.24,1.24,0,0,0,.06.74.61.61,0,0,0,.45.33A1,1,0,0,0,67.72,122.79Z"/><path class="cls-1" d="M81.64,124.52a2.71,2.71,0,0,1-1.76-2.15,2.44,2.44,0,0,1,0-1.38,1,1,0,0,1,.78-.64,1.07,1.07,0,0,1,.74.07.72.72,0,0,1,.39.51,3,3,0,0,1,.06.56,1.64,1.64,0,0,1,0,.22,1.86,1.86,0,0,0,0,.33,1.14,1.14,0,0,0,.94.9,4.8,4.8,0,0,0,2.07-.08,4,4,0,0,0,2-.92,1.51,1.51,0,0,0,.46-1.49,1.35,1.35,0,0,0-.53-.85,3.17,3.17,0,0,0-1-.46c-.38-.09-.91-.2-1.59-.32a15,15,0,0,1-2.15-.48,4.13,4.13,0,0,1-1.55-.87,3,3,0,0,1-.92-1.7,3.5,3.5,0,0,1,.18-2.13,4,4,0,0,1,1.45-1.73,7,7,0,0,1,2.56-1,6.72,6.72,0,0,1,2.17-.11,3.41,3.41,0,0,1,1.74.71,2.57,2.57,0,0,1,.93,1.57,3,3,0,0,1,0,1.55,1,1,0,0,1-.77.68,1,1,0,0,1-.73-.1.8.8,0,0,1-.4-.54,2.86,2.86,0,0,1-.07-.56c0-.32-.06-.52-.08-.6a1.11,1.11,0,0,0-.85-.87,3.36,3.36,0,0,0-1.67,0,3.78,3.78,0,0,0-2,.92,1.66,1.66,0,0,0-.42,1.54,1.54,1.54,0,0,0,.59.94,3.07,3.07,0,0,0,1.06.51c.41.11,1,.23,1.68.35a18.4,18.4,0,0,1,2.09.47,4,4,0,0,1,1.46.8,2.79,2.79,0,0,1,.86,1.56,3.34,3.34,0,0,1-.8,3.13,6.47,6.47,0,0,1-3.54,1.79A6.27,6.27,0,0,1,81.64,124.52Z"/><path class="cls-1" d="M94.41,120.74A3.18,3.18,0,0,1,92.63,119a4.7,4.7,0,0,1-.5-2.28,3.89,3.89,0,0,1,.56-1.92A3.21,3.21,0,0,1,94,113.58a1.8,1.8,0,0,1,1.46-.1,1.86,1.86,0,0,1,1,1,2,2,0,0,1,.21,1.15.88.88,0,0,1-.51.75.77.77,0,0,1-.5.08.51.51,0,0,1-.34-.29,1.67,1.67,0,0,1-.08-.24c0-.1,0-.17,0-.21a1.42,1.42,0,0,0-.12-.44.42.42,0,0,0-.23-.24.34.34,0,0,0-.31,0,1,1,0,0,0-.49.59,2.24,2.24,0,0,0-.08,1,3.76,3.76,0,0,0,.34,1.2q.8,1.68,2.25,1a2.77,2.77,0,0,0,1.1-1,6,6,0,0,0,.8-1.83.55.55,0,0,1,.29-.38.37.37,0,0,1,.38,0,1,1,0,0,1,.33.43,1.54,1.54,0,0,1,.15,1,5.2,5.2,0,0,1-1,2.06A4.64,4.64,0,0,1,97,120.51,3.24,3.24,0,0,1,94.41,120.74Z"/><path class="cls-1" d="M107.21,109.73a1.1,1.1,0,0,1,.41.36,1.43,1.43,0,0,1,.33,1,8.32,8.32,0,0,1-.4,2,3,3,0,0,1-1.11,1.48,1.58,1.58,0,0,1-1.28.35A2,2,0,0,1,104,114a10.17,10.17,0,0,1-.76-1.42,8,8,0,0,0-.65-1.25c-.1-.14-.19-.17-.29-.1s-.17.34-.16.78a7.56,7.56,0,0,0,.21,1.6,12.07,12.07,0,0,0,.58,1.86,1.44,1.44,0,0,1-.46,1.92.62.62,0,0,1-.71.1,3.39,3.39,0,0,1-.85-.92c-.21-.27-.36-.5-.47-.67l-.74-1a27,27,0,0,1-2.61-4.45,15.28,15.28,0,0,1-1.44-4.51,2.81,2.81,0,0,1,.84-2.85,1.41,1.41,0,0,1,1.34-.19A2.68,2.68,0,0,1,99.18,104a7,7,0,0,1,1.21,3.26,21.68,21.68,0,0,1-.1,5.09c.3.47.62.94,1,1.41a9.32,9.32,0,0,1-.36-2.48,4.58,4.58,0,0,1,.32-1.74,2.34,2.34,0,0,1,.72-1,.91.91,0,0,1,1.45.23,11.85,11.85,0,0,1,1,2,11.38,11.38,0,0,0,.83,1.66c.25.35.5.43.75.25a1.26,1.26,0,0,0,.39-.77,13,13,0,0,0,.2-1.72.57.57,0,0,1,.22-.43A.39.39,0,0,1,107.21,109.73Zm-10.07-4.12a13.2,13.2,0,0,0,.76,2.2,30.41,30.41,0,0,0,1.35,2.78,11.29,11.29,0,0,0-.16-3,5.88,5.88,0,0,0-1-2.4,2,2,0,0,0-.55-.57c-.17-.1-.31-.12-.42,0S97,105,97.14,105.61Z"/><path class="cls-1" d="M109.94,110.46a2.9,2.9,0,0,1-1.8-.82,5.18,5.18,0,0,1-1.4-2.07,5,5,0,0,1-.31-2.4,3.49,3.49,0,0,1,.88-2c.15-.17.29-.26.41-.25a1.22,1.22,0,0,1,.5.17,4.3,4.3,0,0,1,.42-.56c.35-.39.67-.46.94-.21a12,12,0,0,1,1,1.25,16.44,16.44,0,0,0,1.66,2,.58.58,0,0,0,.36.16.39.39,0,0,0,.32-.13,1.26,1.26,0,0,0,.2-.81A14.84,14.84,0,0,0,113,103a.53.53,0,0,1,.12-.47.39.39,0,0,1,.36-.12,1,1,0,0,1,.47.27,1.45,1.45,0,0,1,.54.89,8.16,8.16,0,0,1,.09,2A2.38,2.38,0,0,1,114,107a1.44,1.44,0,0,1-.91.47,2.15,2.15,0,0,1-1.18-.16,2.44,2.44,0,0,1-.4,2.46A2,2,0,0,1,109.94,110.46Zm.92-3a2.61,2.61,0,0,0-.51-1.09L108.56,104a1.94,1.94,0,0,0-.45,1.26,3.28,3.28,0,0,0,.35,1.54,4.3,4.3,0,0,0,1,1.38,1.2,1.2,0,0,0,.68.35.73.73,0,0,0,.55-.25A.86.86,0,0,0,110.86,107.48Z"/><path class="cls-1" d="M116.18,102.46a3.16,3.16,0,0,1-2.45-.48,4.73,4.73,0,0,1-1.67-1.62,3.8,3.8,0,0,1-.59-1.92,3.08,3.08,0,0,1,.44-1.73,1.78,1.78,0,0,1,1.16-.9,1.91,1.91,0,0,1,1.39.28,2.11,2.11,0,0,1,.81.85.88.88,0,0,1,0,.9.76.76,0,0,1-.38.34.47.47,0,0,1-.44-.05,1.27,1.27,0,0,1-.2-.16l-.15-.15a1.33,1.33,0,0,0-.34-.3.48.48,0,0,0-.33-.08.4.4,0,0,0-.25.2.91.91,0,0,0-.08.75,2.36,2.36,0,0,0,.49.9,3.6,3.6,0,0,0,1,.81c1.06.65,1.87.51,2.43-.41a2.79,2.79,0,0,0,.36-1.44,5.7,5.7,0,0,0-.34-2,.59.59,0,0,1,0-.49.35.35,0,0,1,.33-.18,1,1,0,0,1,.52.18,1.63,1.63,0,0,1,.69.77,5.26,5.26,0,0,1,.28,2.29,4.72,4.72,0,0,1-.63,2A3.21,3.21,0,0,1,116.18,102.46Z"/><path class="cls-1" d="M122.45,88.67a.9.9,0,0,1,.54.58,1.53,1.53,0,0,1-.07,1.08,2.54,2.54,0,0,1-1.31,1.51,2.46,2.46,0,0,1-2,0A.91.91,0,0,1,119,91a3,3,0,0,0-.26-1.17,1.23,1.23,0,0,0-.69-.57.64.64,0,0,0-.44,0,.37.37,0,0,0-.24.23,1.35,1.35,0,0,0,.26,1.11A7.18,7.18,0,0,0,118.79,92a11.25,11.25,0,0,0,1.65,1.36,2.55,2.55,0,0,1,.82.74.9.9,0,0,1,0,.77.79.79,0,0,1-.59.56,2.69,2.69,0,0,1-1.15-.09q-.74-.19-2.1-.69a27.78,27.78,0,0,1-4.64-2.25,15.46,15.46,0,0,1-3.7-3,2.83,2.83,0,0,1-.89-2.84,1.42,1.42,0,0,1,1-.9,2.69,2.69,0,0,1,1.7.14,6.91,6.91,0,0,1,2.81,2,21.47,21.47,0,0,1,2.75,4.29q.76.33,1.59.63a7.53,7.53,0,0,1-2.12-2.65,2.86,2.86,0,0,1-.2-2.06,1.63,1.63,0,0,1,1-1,2,2,0,0,1,1.43,0,3,3,0,0,1,1.36,1,3.8,3.8,0,0,1,.7,1.9,1,1,0,0,0,.76-.14,3,3,0,0,0,.62-.79A.7.7,0,0,1,122.45,88.67Zm-12.34-.32a13.89,13.89,0,0,0,1.85,1.4,29.48,29.48,0,0,0,2.67,1.56,11.37,11.37,0,0,0-1.82-2.42,5.91,5.91,0,0,0-2.12-1.47,2.25,2.25,0,0,0-.77-.17c-.2,0-.32.08-.37.21S109.67,87.94,110.11,88.35Z"/></svg>